<?xml version="1.0" standalone="no"?>
<!DOCTYPE svg PUBLIC "-//W3C//DTD SVG 20010904//EN"
 "http://www.w3.org/TR/2001/REC-SVG-20010904/DTD/svg10.dtd">
<svg version="1.0" xmlns="http://www.w3.org/2000/svg"
 width="591.000000pt" height="515.000000pt" viewBox="0 0 591.000000 515.000000"
 preserveAspectRatio="xMidYMid meet">

<g transform="translate(0.000000,515.000000) scale(0.100000,-0.100000)"
fill="#000000" stroke="none">
<path d="M1825 4031 c-71 -17 -104 -49 -105 -97 0 -37 28 -64 140 -134 84 -53
135 -110 161 -185 22 -62 24 -101 8 -142 -15 -40 -40 -64 -159 -156 -269 -207
-472 -458 -659 -817 -78 -149 -163 -361 -151 -374 12 -12 122 43 172 84 46 38
111 122 163 210 52 88 153 227 241 331 233 276 573 476 909 534 191 34 462 19
573 -31 78 -35 101 -104 46 -140 -19 -13 -47 -14 -166 -8 -262 12 -492 -38
-738 -161 -264 -132 -465 -307 -721 -625 -174 -217 -266 -293 -419 -345 -149
-50 -341 -38 -500 32 -63 27 -150 81 -150 93 0 10 124 66 177 79 23 6 92 20
154 32 62 11 127 28 144 39 38 23 90 78 83 86 -12 11 -166 33 -239 34 -218 1
-432 -87 -567 -234 -52 -56 -68 -94 -50 -112 7 -7 59 -22 115 -33 111 -22 172
-49 249 -107 77 -60 203 -120 289 -139 62 -14 103 -16 191 -11 l111 6 13 -46
c20 -72 83 -157 170 -229 102 -85 220 -227 220 -265 0 -6 -15 -59 -34 -118
-19 -59 -52 -164 -73 -233 -21 -69 -42 -127 -47 -130 -4 -2 -28 51 -52 119
-65 186 -91 220 -177 229 -53 6 -130 -25 -149 -60 -7 -12 -35 -89 -63 -170
-28 -82 -56 -149 -61 -150 -5 -1 -44 104 -87 233 -82 247 -105 292 -163 316
-44 18 -128 18 -164 -1 -37 -19 -78 -73 -86 -112 -7 -35 6 -73 158 -483 167
-449 174 -461 294 -468 113 -7 144 25 227 241 29 74 57 136 62 137 6 1 38 -62
72 -141 34 -78 71 -155 83 -171 35 -48 78 -68 144 -68 68 0 108 21 143 75 21
32 90 221 242 663 l76 222 -24 44 c-13 25 -41 57 -63 71 -46 30 -46 24 2 155
28 78 31 93 27 180 -4 100 -18 147 -65 214 -27 39 -90 89 -103 81 -4 -3 0 -26
8 -52 22 -72 13 -259 -17 -338 -35 -93 -36 -93 -89 -22 -106 140 -125 198
-136 427 l-7 136 27 32 c43 51 61 44 133 -47 l18 -24 84 53 c370 232 673 346
1043 395 65 8 165 15 223 15 122 0 117 8 78 -125 -59 -205 -153 -328 -307
-403 -80 -39 -87 -44 -87 -72 0 -38 26 -55 109 -70 192 -34 433 78 622 291 35
39 103 124 150 189 93 126 126 156 204 190 108 47 296 34 504 -36 147 -49 232
-97 281 -158 14 -18 13 -19 -30 -13 -25 3 -137 21 -250 41 -264 47 -374 49
-454 11 -31 -15 -56 -31 -56 -36 0 -5 1 -9 3 -9 2 0 55 -13 118 -29 161 -41
435 -96 629 -126 180 -27 312 -53 460 -90 203 -50 265 -51 335 -4 73 49 102
144 68 220 -24 54 -68 94 -205 187 -58 40 -125 90 -148 110 -39 35 -42 42 -50
109 -28 224 -126 409 -320 604 -147 147 -320 259 -550 357 -242 102 -574 177
-842 189 -163 7 -169 2 -86 -72 72 -64 109 -81 234 -105 482 -91 724 -183 974
-366 149 -109 331 -321 360 -421 11 -36 11 -46 -4 -68 -11 -17 -25 -25 -46
-25 -31 0 -53 20 -265 241 -146 152 -292 244 -535 335 -111 41 -227 72 -513
139 -160 37 -242 80 -422 221 -188 147 -243 183 -380 249 -195 94 -365 136
-549 134 -61 -1 -124 -4 -141 -8z m2162 -1048 c46 -29 83 -87 83 -128 0 -24
-3 -26 -27 -21 -32 7 -45 0 -60 -29 -15 -28 1 -65 28 -65 49 0 -14 -56 -80
-71 -122 -27 -239 89 -212 211 26 114 167 169 268 103z m408 -394 c319 -89
306 -84 446 -183 309 -220 320 -228 317 -250 -8 -53 -120 -20 -378 108 -91 46
-192 97 -225 115 -271 149 -367 212 -373 244 -5 25 13 22 213 -34z"/>
<path d="M2146 1645 c-92 -32 -131 -124 -90 -211 29 -61 109 -97 178 -80 56
14 116 92 116 150 -1 39 -37 103 -71 124 -45 27 -87 32 -133 17z"/>
<path d="M2664 1251 c-46 -11 -81 -41 -104 -87 -19 -38 -20 -59 -20 -455 0
-410 0 -415 23 -459 28 -57 74 -84 143 -84 41 0 59 5 89 28 59 45 65 71 65
280 0 102 4 187 8 190 5 3 51 -54 103 -127 148 -208 225 -310 250 -333 79 -71
219 -47 273 46 20 34 21 52 24 450 3 415 3 415 -20 460 -31 61 -77 90 -142 90
-63 0 -113 -24 -143 -69 -22 -33 -23 -43 -23 -238 0 -122 -4 -203 -9 -201 -8
3 -130 172 -246 342 -69 101 -111 143 -162 160 -50 17 -61 18 -109 7z"/>
<path d="M4794 1241 c-72 -44 -99 -115 -68 -178 11 -21 80 -118 154 -216 206
-271 187 -230 192 -417 4 -173 8 -187 71 -234 41 -30 126 -34 174 -6 70 39 78
62 81 250 l4 165 153 204 c182 242 201 273 191 324 -21 111 -177 165 -271 93
-19 -15 -80 -89 -136 -166 -56 -77 -105 -140 -109 -140 -4 0 -45 53 -91 118
-102 146 -133 182 -173 205 -42 23 -131 23 -172 -2z"/>
<path d="M2135 1240 c-37 -11 -70 -40 -90 -81 -14 -26 -15 -87 -13 -462 l3
-432 24 -34 c28 -38 91 -70 139 -71 49 0 100 28 133 73 l29 40 0 432 c0 432 0
432 -22 465 -13 18 -35 42 -50 53 -30 23 -107 31 -153 17z"/>
<path d="M3768 1230 c-20 -11 -47 -36 -60 -57 l-23 -38 0 -415 c0 -470 0 -466
78 -518 41 -27 42 -27 226 -26 160 0 197 4 266 23 171 48 294 148 367 300 39
80 42 91 46 192 4 89 1 119 -16 176 -42 135 -150 258 -284 322 -99 46 -192 61
-390 61 -151 -1 -178 -3 -210 -20z m413 -275 c166 -57 221 -251 108 -379 -46
-52 -111 -81 -200 -91 -64 -6 -67 -6 -73 18 -8 32 -7 452 1 461 12 12 120 6
164 -9z"/>
</g>
</svg>
